<svg width="117" height="40" viewBox="0 0 117 40" fill="none" xmlns="http://www.w3.org/2000/svg">
<path fill-rule="evenodd" clip-rule="evenodd" d="M10.8783 4.44751C9.24055 4.44872 7.91509 5.77515 7.9163 7.40963C7.91509 9.04411 9.24176 10.3705 10.8795 10.3718H13.8427V7.41084C13.8439 5.77636 12.5173 4.44993 10.8783 4.44751C10.8795 4.44751 10.8795 4.44751 10.8783 4.44751V4.44751ZM10.8783 12.3481H2.97884C1.34108 12.3493 0.0144178 13.6758 0.0156283 15.3102C0.0132074 16.9447 1.33987 18.2711 2.97763 18.2736H10.8783C12.5161 18.2724 13.8427 16.9459 13.8415 15.3114C13.8427 13.6757 12.5161 12.3493 10.8783 12.3481Z" fill="#C4C4C4"/>
<path fill-rule="evenodd" clip-rule="evenodd" d="M29.6427 15.3101C29.6439 13.6756 28.3172 12.3492 26.6795 12.348C25.0417 12.3492 23.715 13.6756 23.7162 15.3101V18.2734H26.6795C28.3172 18.2722 29.6439 16.9458 29.6427 15.3101ZM21.742 15.3101V7.40951C21.7432 5.77623 20.4177 4.4498 18.78 4.44739C17.1422 4.4486 15.8156 5.77503 15.8168 7.40951V15.3101C15.8144 16.9446 17.141 18.271 18.7788 18.2734C20.4165 18.2722 21.7432 16.9458 21.742 15.3101Z" fill="#C4C4C4"/>
<path fill-rule="evenodd" clip-rule="evenodd" d="M18.78 34.0746C20.4177 34.0734 21.7444 32.7469 21.7432 31.1125C21.7444 29.478 20.4177 28.1515 18.78 28.1503H15.8168V31.1125C15.8156 32.7457 17.1422 34.0722 18.78 34.0746ZM18.78 26.1728H26.6807C28.3184 26.1716 29.6451 24.8451 29.6439 23.2106C29.6463 21.5762 28.3196 20.2497 26.6819 20.2473H18.7812C17.1434 20.2485 15.8168 21.575 15.818 23.2094C15.8168 24.8451 17.1422 26.1716 18.78 26.1728Z" fill="#C4C4C4"/>
<path fill-rule="evenodd" clip-rule="evenodd" d="M0.0156258 23.2107C0.0144154 24.8451 1.34108 26.1716 2.97883 26.1728C4.61659 26.1716 5.94325 24.8451 5.94204 23.2107V20.2485H2.97883C1.34108 20.2497 0.0144154 21.5762 0.0156258 23.2107ZM7.9163 23.2107V31.1113C7.91388 32.7457 9.24055 34.0722 10.8783 34.0746C12.5161 34.0734 13.8427 32.747 13.8415 31.1125V23.2131C13.8439 21.5786 12.5173 20.2522 10.8795 20.2497C9.24055 20.2497 7.91509 21.5762 7.9163 23.2107C7.9163 23.2119 7.9163 23.2107 7.9163 23.2107Z" fill="#C4C4C4"/>
<path d="M38.8024 25.2966L41.6109 23.6609C42.8453 25.4714 44.4502 26.3767 46.4253 26.3767C47.3923 26.3767 48.1536 26.1916 48.7091 25.8212C49.2852 25.4303 49.5733 24.9159 49.5733 24.2781C49.5733 23.7637 49.3367 23.3111 48.8634 22.9202C48.4108 22.5293 47.9273 22.2412 47.4129 22.056C46.8986 21.8503 46.127 21.5828 45.0983 21.2536C44.9131 21.1919 44.7794 21.1508 44.6971 21.1302C43.9564 20.8833 43.3288 20.6467 42.8145 20.4204C42.3207 20.1735 41.796 19.8545 41.2405 19.4636C40.685 19.0521 40.2632 18.5481 39.9752 17.9514C39.6871 17.3341 39.5431 16.6243 39.5431 15.8219C39.5431 14.2582 40.2015 13.0032 41.5183 12.0567C42.8351 11.1103 44.4707 10.6371 46.4253 10.6371C47.8861 10.6371 49.2646 11.028 50.5609 11.8098C51.8571 12.5711 52.8241 13.5484 53.4619 14.7417L50.8695 16.3157C49.6556 14.6492 48.1845 13.8159 46.4562 13.8159C45.5098 13.8159 44.7794 14.0113 44.265 14.4023C43.7712 14.7726 43.5243 15.2664 43.5243 15.8836C43.5243 16.398 43.7403 16.8609 44.1724 17.2724C44.6251 17.6633 45.088 17.9514 45.5612 18.1366C46.0344 18.3217 46.7031 18.5583 47.5672 18.8464C47.7936 18.9081 47.9582 18.9595 48.061 19.0007C51.7233 20.1735 53.5545 21.9429 53.5545 24.309C53.5545 25.7698 52.9372 27.0145 51.7027 28.0433C50.4888 29.0514 48.7606 29.5555 46.5179 29.5555C44.7896 29.5555 43.2465 29.1749 41.8886 28.4136C40.5513 27.6524 39.5225 26.6133 38.8024 25.2966ZM56.9493 29V3.78571H60.8379V29H56.9493ZM68.3065 24.0003C68.3065 24.6587 68.5637 25.2143 69.0781 25.6669C69.613 26.099 70.3126 26.315 71.1767 26.315C72.4112 26.315 73.4605 25.9035 74.3246 25.0805C75.2093 24.2575 75.6517 23.1774 75.6517 21.84V20.2043C74.7053 20.4306 73.5634 20.6467 72.226 20.8524C69.613 21.2639 68.3065 22.3132 68.3065 24.0003ZM64.3562 24.3398C64.3562 20.9862 66.8457 18.939 71.8248 18.1983C73.6354 17.9308 74.911 17.6839 75.6517 17.4576V16.5009C75.6517 15.6367 75.3431 14.9578 74.7258 14.464C74.1086 13.9702 73.2856 13.7233 72.2569 13.7233C70.3023 13.7233 68.6151 14.5257 67.1955 16.1305L64.8191 14.0936C65.745 13.0032 66.8457 12.1596 68.1214 11.5629C69.4176 10.9457 70.7755 10.6371 72.1951 10.6371C74.8493 10.6371 76.7421 11.2852 77.8738 12.5814C79.0054 13.857 79.5712 15.647 79.5712 17.9514V29H75.7751V26.7779C75.4048 27.5392 74.7567 28.1976 73.8308 28.7531C72.9255 29.288 71.8557 29.5555 70.6212 29.5555C68.6666 29.5555 67.1338 29.072 66.0227 28.105C64.9117 27.138 64.3562 25.8829 64.3562 24.3398ZM82.5648 20.1117C82.5648 17.2518 83.3261 14.9578 84.8486 13.2295C86.3917 11.5012 88.3771 10.6371 90.805 10.6371C92.5744 10.6371 94.066 11.172 95.2799 12.2419C96.4939 13.3118 97.2551 14.536 97.5637 15.9145L94.2306 16.8404C93.9837 16.0585 93.562 15.3898 92.9653 14.8343C92.3686 14.2582 91.6588 13.9702 90.8358 13.9702C89.4985 13.9702 88.4492 14.5566 87.6879 15.7293C86.9472 16.9021 86.5769 18.3629 86.5769 20.1117C86.5769 22.0458 86.9781 23.5477 87.7805 24.6176C88.5829 25.6875 89.6013 26.2224 90.8358 26.2224C91.7411 26.2224 92.5332 25.9138 93.2122 25.2966C93.9117 24.6587 94.3952 23.9386 94.6627 23.1362L97.9958 24.0929C97.6049 25.5332 96.751 26.8088 95.4343 27.9198C94.1175 29.0103 92.5744 29.5555 90.805 29.5555C88.3771 29.5555 86.3917 28.7017 84.8486 26.994C83.3261 25.2657 82.5648 22.9716 82.5648 20.1117ZM100.928 29V3.78571H104.816V18.2909L111.143 11.1926H116.05L109.476 18.4452L116.451 29H111.884L106.946 21.1919L104.816 23.5374V29H100.928Z" fill="#C4C4C4"/>
</svg>
